<svg width="514" height="139" viewBox="0 0 514 139" fill="none" xmlns="http://www.w3.org/2000/svg">
<path d="M4.95384 105V39.5455H20.7741V65.8168H46.5661V39.5455H62.3544V105H46.5661V78.6967H20.7741V105H4.95384ZM86.1168 105.831C82.9847 105.831 80.2042 105.309 77.7752 104.265C75.3675 103.2 73.4606 101.602 72.0543 99.4709C70.6694 97.3189 69.9769 94.6236 69.9769 91.3849C69.9769 88.6577 70.4563 86.3565 71.4151 84.4815C72.3739 82.6065 73.695 81.0831 75.3782 79.9112C77.0614 78.7393 79.0004 77.8551 81.195 77.2585C83.3896 76.6406 85.7333 76.2251 88.2262 76.0121C91.0174 75.7564 93.2653 75.4901 94.9698 75.2131C96.6744 74.9148 97.9102 74.4993 98.6772 73.9666C99.4656 73.4126 99.8597 72.6349 99.8597 71.6335V71.4737C99.8597 69.8331 99.2951 68.5653 98.1658 67.6705C97.0366 66.7756 95.5131 66.3281 93.5955 66.3281C91.5288 66.3281 89.8668 66.7756 88.6097 67.6705C87.3526 68.5653 86.5536 69.8011 86.2127 71.3778L71.7987 70.8665C72.2248 67.8835 73.3221 65.2202 75.0906 62.8764C76.8803 60.5114 79.3306 58.6577 82.4414 57.3153C85.5735 55.9517 89.3342 55.2699 93.7234 55.2699C96.8555 55.2699 99.7425 55.6428 102.385 56.3885C105.027 57.1129 107.328 58.1783 109.288 59.5845C111.248 60.9695 112.761 62.674 113.826 64.6982C114.913 66.7223 115.456 69.0341 115.456 71.6335V105H100.755V98.1605H100.371C99.4975 99.8224 98.3789 101.229 97.0153 102.379C95.6729 103.53 94.0856 104.393 92.2532 104.968C90.4421 105.543 88.3967 105.831 86.1168 105.831ZM90.9428 95.6037C92.6261 95.6037 94.1389 95.2628 95.4812 94.581C96.8448 93.8991 97.9315 92.9616 98.7411 91.7685C99.5508 90.554 99.9556 89.1477 99.9556 87.5497V82.8835C99.5082 83.1179 98.9648 83.331 98.3256 83.5227C97.7077 83.7145 97.0259 83.8956 96.2802 84.0661C95.5344 84.2365 94.7674 84.3857 93.979 84.5135C93.1907 84.6413 92.4343 84.7585 91.7099 84.8651C90.2397 85.0994 88.9826 85.4616 87.9386 85.9517C86.9158 86.4418 86.1275 87.081 85.5735 87.8693C85.0408 88.6364 84.7745 89.5526 84.7745 90.6179C84.7745 92.2372 85.3498 93.473 86.5004 94.3253C87.6722 95.1776 89.1531 95.6037 90.9428 95.6037ZM147.928 105.927C142.75 105.927 138.308 104.862 134.6 102.731C130.914 100.6 128.081 97.6385 126.099 93.8459C124.118 90.032 123.127 85.6214 123.127 80.6143C123.127 75.5859 124.118 71.1754 126.099 67.3828C128.102 63.5689 130.946 60.5966 134.632 58.4659C138.34 56.3352 142.761 55.2699 147.896 55.2699C152.434 55.2699 156.387 56.0902 159.753 57.7308C163.141 59.3714 165.783 61.6939 167.679 64.6982C169.597 67.6811 170.609 71.1861 170.716 75.2131H156.11C155.811 72.6989 154.959 70.728 153.553 69.3004C152.168 67.8729 150.357 67.1591 148.12 67.1591C146.309 67.1591 144.721 67.6705 143.358 68.6932C141.994 69.6946 140.929 71.1861 140.162 73.1676C139.416 75.1278 139.043 77.5568 139.043 80.4545C139.043 83.3523 139.416 85.8026 140.162 87.8054C140.929 89.7869 141.994 91.2891 143.358 92.3118C144.721 93.3132 146.309 93.8139 148.12 93.8139C149.569 93.8139 150.847 93.505 151.955 92.8871C153.084 92.2692 154.011 91.3636 154.735 90.1705C155.46 88.956 155.918 87.4858 156.11 85.7599H170.716C170.566 89.8082 169.554 93.3452 167.679 96.3707C165.826 99.3963 163.216 101.751 159.849 103.434C156.504 105.096 152.53 105.927 147.928 105.927ZM192.808 92.12L192.872 73.4872H195.045L208.852 55.9091H226.558L206.04 81.0938H201.917L192.808 92.12ZM178.714 105V39.5455H194.342V105H178.714ZM209.204 105L196.356 84.6094L206.647 73.5192L227.261 105H209.204ZM253.077 105.927C247.942 105.927 243.51 104.915 239.782 102.891C236.074 100.845 233.219 97.9368 231.216 94.1655C229.235 90.3729 228.244 85.8665 228.244 80.6463C228.244 75.5753 229.245 71.1435 231.248 67.3509C233.251 63.5369 236.074 60.5753 239.718 58.4659C243.361 56.3352 247.654 55.2699 252.598 55.2699C256.092 55.2699 259.288 55.8132 262.186 56.8999C265.083 57.9865 267.587 59.5952 269.696 61.7259C271.806 63.8565 273.446 66.4879 274.618 69.62C275.79 72.7308 276.376 76.2997 276.376 80.3267V84.2259H233.709V75.1491H261.834C261.813 73.4872 261.419 72.0064 260.652 70.7067C259.885 69.407 258.83 68.3949 257.488 67.6705C256.167 66.9247 254.643 66.5518 252.917 66.5518C251.17 66.5518 249.604 66.946 248.219 67.7344C246.834 68.5014 245.737 69.5561 244.927 70.8984C244.118 72.2195 243.691 73.7216 243.649 75.4048V84.6413C243.649 86.6442 244.043 88.402 244.831 89.9148C245.62 91.4062 246.738 92.5675 248.187 93.3984C249.636 94.2294 251.362 94.6449 253.365 94.6449C254.75 94.6449 256.007 94.4531 257.136 94.0696C258.265 93.6861 259.235 93.1214 260.044 92.3757C260.854 91.63 261.461 90.7138 261.866 89.6271L276.216 90.0426C275.62 93.2599 274.309 96.0618 272.285 98.4482C270.282 100.813 267.651 102.656 264.391 103.977C261.131 105.277 257.36 105.927 253.077 105.927ZM284.358 105V55.9091H299.539V64.858H300.051C300.945 61.6193 302.405 59.2116 304.429 57.6349C306.453 56.0369 308.808 55.2379 311.492 55.2379C312.217 55.2379 312.963 55.2912 313.73 55.3977C314.497 55.483 315.21 55.6214 315.871 55.8132V69.3963C315.125 69.1406 314.145 68.9382 312.931 68.7891C311.737 68.6399 310.672 68.5653 309.735 68.5653C307.881 68.5653 306.208 68.9808 304.717 69.8118C303.247 70.6214 302.085 71.7614 301.233 73.2315C300.402 74.6804 299.987 76.3849 299.987 78.3452V105H284.358ZM322.239 39.5455H341.831L358.45 80.071H359.217L375.836 39.5455H395.428V105H380.023V64.794H379.48L363.755 104.585H353.912L338.187 64.5703H337.644V105H322.239V39.5455ZM419.134 105.831C416.002 105.831 413.222 105.309 410.793 104.265C408.385 103.2 406.478 101.602 405.072 99.4709C403.687 97.3189 402.994 94.6236 402.994 91.3849C402.994 88.6577 403.474 86.3565 404.433 84.4815C405.392 82.6065 406.713 81.0831 408.396 79.9112C410.079 78.7393 412.018 77.8551 414.213 77.2585C416.407 76.6406 418.751 76.2251 421.244 76.0121C424.035 75.7564 426.283 75.4901 427.987 75.2131C429.692 74.9148 430.928 74.4993 431.695 73.9666C432.483 73.4126 432.877 72.6349 432.877 71.6335V71.4737C432.877 69.8331 432.313 68.5653 431.183 67.6705C430.054 66.7756 428.531 66.3281 426.613 66.3281C424.546 66.3281 422.884 66.7756 421.627 67.6705C420.37 68.5653 419.571 69.8011 419.23 71.3778L404.816 70.8665C405.242 67.8835 406.34 65.2202 408.108 62.8764C409.898 60.5114 412.348 58.6577 415.459 57.3153C418.591 55.9517 422.352 55.2699 426.741 55.2699C429.873 55.2699 432.76 55.6428 435.402 56.3885C438.044 57.1129 440.345 58.1783 442.306 59.5845C444.266 60.9695 445.779 62.674 446.844 64.6982C447.931 66.7223 448.474 69.0341 448.474 71.6335V105H433.772V98.1605H433.389C432.515 99.8224 431.396 101.229 430.033 102.379C428.691 103.53 427.103 104.393 425.271 104.968C423.46 105.543 421.414 105.831 419.134 105.831ZM423.96 95.6037C425.644 95.6037 427.156 95.2628 428.499 94.581C429.862 93.8991 430.949 92.9616 431.759 91.7685C432.568 90.554 432.973 89.1477 432.973 87.5497V82.8835C432.526 83.1179 431.982 83.331 431.343 83.5227C430.725 83.7145 430.044 83.8956 429.298 84.0661C428.552 84.2365 427.785 84.3857 426.997 84.5135C426.208 84.6413 425.452 84.7585 424.727 84.8651C423.257 85.0994 422 85.4616 420.956 85.9517C419.933 86.4418 419.145 87.081 418.591 87.8693C418.058 88.6364 417.792 89.5526 417.792 90.6179C417.792 92.2372 418.367 93.473 419.518 94.3253C420.69 95.1776 422.171 95.6037 423.96 95.6037ZM473.659 77.0028V105H458.03V55.9091H472.892V64.9219H473.435C474.521 61.9176 476.375 59.5632 478.996 57.8587C481.617 56.1328 484.738 55.2699 488.36 55.2699C491.812 55.2699 494.806 56.0476 497.341 57.603C499.898 59.1371 501.879 61.2891 503.286 64.0589C504.713 66.8075 505.416 70.0249 505.395 73.7109V105H489.767V76.7791C489.788 74.0518 489.095 71.9212 487.689 70.3871C486.304 68.853 484.376 68.0859 481.904 68.0859C480.264 68.0859 478.815 68.4482 477.558 69.1726C476.322 69.8757 475.363 70.8878 474.681 72.2088C474.021 73.5298 473.68 75.1278 473.659 77.0028Z" fill="#EF2929"/>
<mask id="path-2-outside-1_1410_387" maskUnits="userSpaceOnUse" x="9" y="37" width="505" height="71" fill="black">
<rect fill="white" x="9" y="37" width="505" height="71"/>
<path d="M11 104.455V39H26.8203V65.2713H52.6122V39H68.4006V104.455H52.6122V78.1513H26.8203V104.455H11Z"/>
<path d="M92.163 105.286C89.0309 105.286 86.2504 104.764 83.8214 103.719C81.4137 102.654 79.5067 101.056 78.1005 98.9254C76.7156 96.7734 76.0231 94.0781 76.0231 90.8395C76.0231 88.1122 76.5025 85.8111 77.4613 83.9361C78.4201 82.0611 79.7411 80.5376 81.4244 79.3658C83.1076 78.1939 85.0465 77.3097 87.2411 76.7131C89.4357 76.0952 91.7795 75.6797 94.2724 75.4666C97.0636 75.2109 99.3114 74.9446 101.016 74.6676C102.721 74.3693 103.956 73.9538 104.723 73.4212C105.512 72.8672 105.906 72.0895 105.906 71.0881V70.9283C105.906 69.2876 105.341 68.0199 104.212 67.125C103.083 66.2301 101.559 65.7827 99.6417 65.7827C97.5749 65.7827 95.913 66.2301 94.6559 67.125C93.3988 68.0199 92.5998 69.2557 92.2589 70.8324L77.8448 70.321C78.271 67.3381 79.3683 64.6747 81.1367 62.331C82.9265 59.9659 85.3768 58.1122 88.4876 56.7699C91.6197 55.4063 95.3803 54.7244 99.7695 54.7244C102.902 54.7244 105.789 55.0973 108.431 55.843C111.073 56.5675 113.374 57.6328 115.334 59.0391C117.294 60.424 118.807 62.1286 119.873 64.1527C120.959 66.1768 121.502 68.4886 121.502 71.0881V104.455H106.801V97.6151H106.417C105.544 99.277 104.425 100.683 103.061 101.834C101.719 102.984 100.132 103.847 98.2994 104.423C96.4883 104.998 94.4428 105.286 92.163 105.286ZM96.989 95.0582C98.6722 95.0582 100.185 94.7173 101.527 94.0355C102.891 93.3537 103.978 92.4162 104.787 91.223C105.597 90.0085 106.002 88.6023 106.002 87.0043V82.3381C105.554 82.5724 105.011 82.7855 104.372 82.9773C103.754 83.169 103.072 83.3501 102.326 83.5206C101.581 83.691 100.814 83.8402 100.025 83.968C99.2369 84.0959 98.4805 84.2131 97.756 84.3196C96.2859 84.554 95.0288 84.9162 93.9847 85.4063C92.962 85.8963 92.1737 86.5355 91.6197 87.3239C91.087 88.0909 90.8207 89.0071 90.8207 90.0724C90.8207 91.6918 91.396 92.9276 92.5465 93.7798C93.7184 94.6321 95.1992 95.0582 96.989 95.0582Z"/>
<path d="M153.974 105.381C148.797 105.381 144.354 104.316 140.647 102.185C136.961 100.055 134.127 97.093 132.145 93.3004C130.164 89.4865 129.173 85.076 129.173 80.0689C129.173 75.0405 130.164 70.63 132.145 66.8374C134.148 63.0234 136.993 60.0511 140.679 57.9205C144.386 55.7898 148.807 54.7244 153.942 54.7244C158.48 54.7244 162.433 55.5447 165.799 57.1854C169.187 58.826 171.829 61.1484 173.725 64.1527C175.643 67.1357 176.655 70.6406 176.762 74.6676H162.156C161.858 72.1534 161.005 70.1825 159.599 68.755C158.214 67.3274 156.403 66.6136 154.166 66.6136C152.355 66.6136 150.767 67.125 149.404 68.1477C148.04 69.1491 146.975 70.6406 146.208 72.6222C145.462 74.5824 145.089 77.0114 145.089 79.9091C145.089 82.8068 145.462 85.2571 146.208 87.2599C146.975 89.2415 148.04 90.7436 149.404 91.7663C150.767 92.7678 152.355 93.2685 154.166 93.2685C155.615 93.2685 156.893 92.9595 158.001 92.3416C159.13 91.7237 160.057 90.8182 160.782 89.625C161.506 88.4105 161.964 86.9403 162.156 85.2145H176.762C176.613 89.2628 175.6 92.7997 173.725 95.8253C171.872 98.8509 169.262 101.205 165.895 102.889C162.55 104.55 158.576 105.381 153.974 105.381Z"/>
<path d="M198.854 91.5746L198.918 72.9418H201.091L214.898 55.3636H232.604L212.086 80.5483H207.963L198.854 91.5746ZM184.76 104.455V39H200.388V104.455H184.76ZM215.25 104.455L202.402 84.0639L212.693 72.9737L233.307 104.455H215.25Z"/>
<path d="M259.123 105.381C253.988 105.381 249.556 104.369 245.828 102.345C242.12 100.3 239.265 97.3913 237.262 93.62C235.281 89.8274 234.29 85.321 234.29 80.1009C234.29 75.0298 235.292 70.598 237.294 66.8054C239.297 62.9915 242.12 60.0298 245.764 57.9205C249.407 55.7898 253.701 54.7244 258.644 54.7244C262.138 54.7244 265.334 55.2678 268.232 56.3544C271.13 57.441 273.633 59.0497 275.743 61.1804C277.852 63.3111 279.493 65.9425 280.664 69.0746C281.836 72.1854 282.422 75.7543 282.422 79.7812V83.6804H239.755V74.6037H267.88C267.859 72.9418 267.465 71.4609 266.698 70.1612C265.931 68.8615 264.876 67.8494 263.534 67.125C262.213 66.3793 260.689 66.0064 258.963 66.0064C257.216 66.0064 255.65 66.4006 254.265 67.1889C252.88 67.956 251.783 69.0107 250.973 70.353C250.164 71.674 249.738 73.1761 249.695 74.8594V84.0959C249.695 86.0987 250.089 87.8565 250.877 89.3693C251.666 90.8608 252.784 92.022 254.233 92.853C255.682 93.684 257.408 94.0994 259.411 94.0994C260.796 94.0994 262.053 93.9077 263.182 93.5242C264.311 93.1406 265.281 92.576 266.091 91.8303C266.9 91.0845 267.507 90.1683 267.912 89.0817L282.262 89.4972C281.666 92.7145 280.355 95.5163 278.331 97.9027C276.328 100.268 273.697 102.111 270.437 103.432C267.177 104.732 263.406 105.381 259.123 105.381Z"/>
<path d="M290.404 104.455V55.3636H305.585V64.3125H306.097C306.992 61.0739 308.451 58.6662 310.475 57.0895C312.499 55.4915 314.854 54.6925 317.539 54.6925C318.263 54.6925 319.009 54.7457 319.776 54.8523C320.543 54.9375 321.257 55.076 321.917 55.2678V68.8509C321.171 68.5952 320.191 68.3928 318.977 68.2436C317.784 68.0945 316.718 68.0199 315.781 68.0199C313.927 68.0199 312.254 68.4354 310.763 69.2663C309.293 70.076 308.132 71.2159 307.279 72.6861C306.448 74.1349 306.033 75.8395 306.033 77.7997V104.455H290.404Z"/>
<path d="M328.285 39H347.877L364.496 79.5256H365.263L381.882 39H401.474V104.455H386.069V64.2486H385.526L369.802 104.039H359.958L344.233 64.0249H343.69V104.455H328.285V39Z"/>
<path d="M425.181 105.286C422.048 105.286 419.268 104.764 416.839 103.719C414.431 102.654 412.524 101.056 411.118 98.9254C409.733 96.7734 409.041 94.0781 409.041 90.8395C409.041 88.1122 409.52 85.8111 410.479 83.9361C411.438 82.0611 412.759 80.5376 414.442 79.3658C416.125 78.1939 418.064 77.3097 420.259 76.7131C422.453 76.0952 424.797 75.6797 427.29 75.4666C430.081 75.2109 432.329 74.9446 434.034 74.6676C435.738 74.3693 436.974 73.9538 437.741 73.4212C438.529 72.8672 438.923 72.0895 438.923 71.0881V70.9283C438.923 69.2876 438.359 68.0199 437.23 67.125C436.1 66.2301 434.577 65.7827 432.659 65.7827C430.593 65.7827 428.931 66.2301 427.673 67.125C426.416 68.0199 425.617 69.2557 425.276 70.8324L410.862 70.321C411.289 67.3381 412.386 64.6747 414.154 62.331C415.944 59.9659 418.394 58.1122 421.505 56.7699C424.637 55.4063 428.398 54.7244 432.787 54.7244C435.919 54.7244 438.806 55.0973 441.448 55.843C444.09 56.5675 446.392 57.6328 448.352 59.0391C450.312 60.424 451.825 62.1286 452.89 64.1527C453.977 66.1768 454.52 68.4886 454.52 71.0881V104.455H439.818V97.6151H439.435C438.561 99.277 437.443 100.683 436.079 101.834C434.737 102.984 433.149 103.847 431.317 104.423C429.506 104.998 427.46 105.286 425.181 105.286ZM430.007 95.0582C431.69 95.0582 433.203 94.7173 434.545 94.0355C435.909 93.3537 436.995 92.4162 437.805 91.223C438.615 90.0085 439.019 88.6023 439.019 87.0043V82.3381C438.572 82.5724 438.029 82.7855 437.389 82.9773C436.772 83.169 436.09 83.3501 435.344 83.5206C434.598 83.691 433.831 83.8402 433.043 83.968C432.254 84.0959 431.498 84.2131 430.774 84.3196C429.303 84.554 428.046 84.9162 427.002 85.4063C425.98 85.8963 425.191 86.5355 424.637 87.3239C424.105 88.0909 423.838 89.0071 423.838 90.0724C423.838 91.6918 424.414 92.9276 425.564 93.7798C426.736 94.6321 428.217 95.0582 430.007 95.0582Z"/>
<path d="M479.705 76.4574V104.455H464.076V55.3636H478.938V64.3764H479.481C480.568 61.3722 482.421 59.0178 485.042 57.3132C487.663 55.5874 490.784 54.7244 494.406 54.7244C497.858 54.7244 500.852 55.5021 503.387 57.0575C505.944 58.5916 507.926 60.7436 509.332 63.5135C510.759 66.2621 511.463 69.4794 511.441 73.1655V104.455H495.813V76.2337C495.834 73.5064 495.142 71.3757 493.735 69.8416C492.35 68.3075 490.422 67.5405 487.95 67.5405C486.31 67.5405 484.861 67.9027 483.604 68.6271C482.368 69.3303 481.409 70.3423 480.727 71.6634C480.067 72.9844 479.726 74.5824 479.705 76.4574Z"/>
</mask>
<path d="M11 104.455V39H26.8203V65.2713H52.6122V39H68.4006V104.455H52.6122V78.1513H26.8203V104.455H11Z" stroke="#EF2929" stroke-width="4" stroke-dasharray="6 6" mask="url(#path-2-outside-1_1410_387)"/>
<path d="M92.163 105.286C89.0309 105.286 86.2504 104.764 83.8214 103.719C81.4137 102.654 79.5067 101.056 78.1005 98.9254C76.7156 96.7734 76.0231 94.0781 76.0231 90.8395C76.0231 88.1122 76.5025 85.8111 77.4613 83.9361C78.4201 82.0611 79.7411 80.5376 81.4244 79.3658C83.1076 78.1939 85.0465 77.3097 87.2411 76.7131C89.4357 76.0952 91.7795 75.6797 94.2724 75.4666C97.0636 75.2109 99.3114 74.9446 101.016 74.6676C102.721 74.3693 103.956 73.9538 104.723 73.4212C105.512 72.8672 105.906 72.0895 105.906 71.0881V70.9283C105.906 69.2876 105.341 68.0199 104.212 67.125C103.083 66.2301 101.559 65.7827 99.6417 65.7827C97.5749 65.7827 95.913 66.2301 94.6559 67.125C93.3988 68.0199 92.5998 69.2557 92.2589 70.8324L77.8448 70.321C78.271 67.3381 79.3683 64.6747 81.1367 62.331C82.9265 59.9659 85.3768 58.1122 88.4876 56.7699C91.6197 55.4063 95.3803 54.7244 99.7695 54.7244C102.902 54.7244 105.789 55.0973 108.431 55.843C111.073 56.5675 113.374 57.6328 115.334 59.0391C117.294 60.424 118.807 62.1286 119.873 64.1527C120.959 66.1768 121.502 68.4886 121.502 71.0881V104.455H106.801V97.6151H106.417C105.544 99.277 104.425 100.683 103.061 101.834C101.719 102.984 100.132 103.847 98.2994 104.423C96.4883 104.998 94.4428 105.286 92.163 105.286ZM96.989 95.0582C98.6722 95.0582 100.185 94.7173 101.527 94.0355C102.891 93.3537 103.978 92.4162 104.787 91.223C105.597 90.0085 106.002 88.6023 106.002 87.0043V82.3381C105.554 82.5724 105.011 82.7855 104.372 82.9773C103.754 83.169 103.072 83.3501 102.326 83.5206C101.581 83.691 100.814 83.8402 100.025 83.968C99.2369 84.0959 98.4805 84.2131 97.756 84.3196C96.2859 84.554 95.0288 84.9162 93.9847 85.4063C92.962 85.8963 92.1737 86.5355 91.6197 87.3239C91.087 88.0909 90.8207 89.0071 90.8207 90.0724C90.8207 91.6918 91.396 92.9276 92.5465 93.7798C93.7184 94.6321 95.1992 95.0582 96.989 95.0582Z" stroke="#EF2929" stroke-width="4" stroke-dasharray="6 6" mask="url(#path-2-outside-1_1410_387)"/>
<path d="M153.974 105.381C148.797 105.381 144.354 104.316 140.647 102.185C136.961 100.055 134.127 97.093 132.145 93.3004C130.164 89.4865 129.173 85.076 129.173 80.0689C129.173 75.0405 130.164 70.63 132.145 66.8374C134.148 63.0234 136.993 60.0511 140.679 57.9205C144.386 55.7898 148.807 54.7244 153.942 54.7244C158.48 54.7244 162.433 55.5447 165.799 57.1854C169.187 58.826 171.829 61.1484 173.725 64.1527C175.643 67.1357 176.655 70.6406 176.762 74.6676H162.156C161.858 72.1534 161.005 70.1825 159.599 68.755C158.214 67.3274 156.403 66.6136 154.166 66.6136C152.355 66.6136 150.767 67.125 149.404 68.1477C148.04 69.1491 146.975 70.6406 146.208 72.6222C145.462 74.5824 145.089 77.0114 145.089 79.9091C145.089 82.8068 145.462 85.2571 146.208 87.2599C146.975 89.2415 148.04 90.7436 149.404 91.7663C150.767 92.7678 152.355 93.2685 154.166 93.2685C155.615 93.2685 156.893 92.9595 158.001 92.3416C159.13 91.7237 160.057 90.8182 160.782 89.625C161.506 88.4105 161.964 86.9403 162.156 85.2145H176.762C176.613 89.2628 175.6 92.7997 173.725 95.8253C171.872 98.8509 169.262 101.205 165.895 102.889C162.55 104.55 158.576 105.381 153.974 105.381Z" stroke="#EF2929" stroke-width="4" stroke-dasharray="6 6" mask="url(#path-2-outside-1_1410_387)"/>
<path d="M198.854 91.5746L198.918 72.9418H201.091L214.898 55.3636H232.604L212.086 80.5483H207.963L198.854 91.5746ZM184.76 104.455V39H200.388V104.455H184.76ZM215.25 104.455L202.402 84.0639L212.693 72.9737L233.307 104.455H215.25Z" stroke="#EF2929" stroke-width="4" stroke-dasharray="6 6" mask="url(#path-2-outside-1_1410_387)"/>
<path d="M259.123 105.381C253.988 105.381 249.556 104.369 245.828 102.345C242.12 100.3 239.265 97.3913 237.262 93.62C235.281 89.8274 234.29 85.321 234.29 80.1009C234.29 75.0298 235.292 70.598 237.294 66.8054C239.297 62.9915 242.12 60.0298 245.764 57.9205C249.407 55.7898 253.701 54.7244 258.644 54.7244C262.138 54.7244 265.334 55.2678 268.232 56.3544C271.13 57.441 273.633 59.0497 275.743 61.1804C277.852 63.3111 279.493 65.9425 280.664 69.0746C281.836 72.1854 282.422 75.7543 282.422 79.7812V83.6804H239.755V74.6037H267.88C267.859 72.9418 267.465 71.4609 266.698 70.1612C265.931 68.8615 264.876 67.8494 263.534 67.125C262.213 66.3793 260.689 66.0064 258.963 66.0064C257.216 66.0064 255.65 66.4006 254.265 67.1889C252.88 67.956 251.783 69.0107 250.973 70.353C250.164 71.674 249.738 73.1761 249.695 74.8594V84.0959C249.695 86.0987 250.089 87.8565 250.877 89.3693C251.666 90.8608 252.784 92.022 254.233 92.853C255.682 93.684 257.408 94.0994 259.411 94.0994C260.796 94.0994 262.053 93.9077 263.182 93.5242C264.311 93.1406 265.281 92.576 266.091 91.8303C266.9 91.0845 267.507 90.1683 267.912 89.0817L282.262 89.4972C281.666 92.7145 280.355 95.5163 278.331 97.9027C276.328 100.268 273.697 102.111 270.437 103.432C267.177 104.732 263.406 105.381 259.123 105.381Z" stroke="#EF2929" stroke-width="4" stroke-dasharray="6 6" mask="url(#path-2-outside-1_1410_387)"/>
<path d="M290.404 104.455V55.3636H305.585V64.3125H306.097C306.992 61.0739 308.451 58.6662 310.475 57.0895C312.499 55.4915 314.854 54.6925 317.539 54.6925C318.263 54.6925 319.009 54.7457 319.776 54.8523C320.543 54.9375 321.257 55.076 321.917 55.2678V68.8509C321.171 68.5952 320.191 68.3928 318.977 68.2436C317.784 68.0945 316.718 68.0199 315.781 68.0199C313.927 68.0199 312.254 68.4354 310.763 69.2663C309.293 70.076 308.132 71.2159 307.279 72.6861C306.448 74.1349 306.033 75.8395 306.033 77.7997V104.455H290.404Z" stroke="#EF2929" stroke-width="4" stroke-dasharray="6 6" mask="url(#path-2-outside-1_1410_387)"/>
<path d="M328.285 39H347.877L364.496 79.5256H365.263L381.882 39H401.474V104.455H386.069V64.2486H385.526L369.802 104.039H359.958L344.233 64.0249H343.69V104.455H328.285V39Z" stroke="#EF2929" stroke-width="4" stroke-dasharray="6 6" mask="url(#path-2-outside-1_1410_387)"/>
<path d="M425.181 105.286C422.048 105.286 419.268 104.764 416.839 103.719C414.431 102.654 412.524 101.056 411.118 98.9254C409.733 96.7734 409.041 94.0781 409.041 90.8395C409.041 88.1122 409.52 85.8111 410.479 83.9361C411.438 82.0611 412.759 80.5376 414.442 79.3658C416.125 78.1939 418.064 77.3097 420.259 76.7131C422.453 76.0952 424.797 75.6797 427.29 75.4666C430.081 75.2109 432.329 74.9446 434.034 74.6676C435.738 74.3693 436.974 73.9538 437.741 73.4212C438.529 72.8672 438.923 72.0895 438.923 71.0881V70.9283C438.923 69.2876 438.359 68.0199 437.23 67.125C436.1 66.2301 434.577 65.7827 432.659 65.7827C430.593 65.7827 428.931 66.2301 427.673 67.125C426.416 68.0199 425.617 69.2557 425.276 70.8324L410.862 70.321C411.289 67.3381 412.386 64.6747 414.154 62.331C415.944 59.9659 418.394 58.1122 421.505 56.7699C424.637 55.4063 428.398 54.7244 432.787 54.7244C435.919 54.7244 438.806 55.0973 441.448 55.843C444.09 56.5675 446.392 57.6328 448.352 59.0391C450.312 60.424 451.825 62.1286 452.89 64.1527C453.977 66.1768 454.52 68.4886 454.52 71.0881V104.455H439.818V97.6151H439.435C438.561 99.277 437.443 100.683 436.079 101.834C434.737 102.984 433.149 103.847 431.317 104.423C429.506 104.998 427.46 105.286 425.181 105.286ZM430.007 95.0582C431.69 95.0582 433.203 94.7173 434.545 94.0355C435.909 93.3537 436.995 92.4162 437.805 91.223C438.615 90.0085 439.019 88.6023 439.019 87.0043V82.3381C438.572 82.5724 438.029 82.7855 437.389 82.9773C436.772 83.169 436.09 83.3501 435.344 83.5206C434.598 83.691 433.831 83.8402 433.043 83.968C432.254 84.0959 431.498 84.2131 430.774 84.3196C429.303 84.554 428.046 84.9162 427.002 85.4063C425.98 85.8963 425.191 86.5355 424.637 87.3239C424.105 88.0909 423.838 89.0071 423.838 90.0724C423.838 91.6918 424.414 92.9276 425.564 93.7798C426.736 94.6321 428.217 95.0582 430.007 95.0582Z" stroke="#EF2929" stroke-width="4" stroke-dasharray="6 6" mask="url(#path-2-outside-1_1410_387)"/>
<path d="M479.705 76.4574V104.455H464.076V55.3636H478.938V64.3764H479.481C480.568 61.3722 482.421 59.0178 485.042 57.3132C487.663 55.5874 490.784 54.7244 494.406 54.7244C497.858 54.7244 500.852 55.5021 503.387 57.0575C505.944 58.5916 507.926 60.7436 509.332 63.5135C510.759 66.2621 511.463 69.4794 511.441 73.1655V104.455H495.813V76.2337C495.834 73.5064 495.142 71.3757 493.735 69.8416C492.35 68.3075 490.422 67.5405 487.95 67.5405C486.31 67.5405 484.861 67.9027 483.604 68.6271C482.368 69.3303 481.409 70.3423 480.727 71.6634C480.067 72.9844 479.726 74.5824 479.705 76.4574Z" stroke="#EF2929" stroke-width="4" stroke-dasharray="6 6" mask="url(#path-2-outside-1_1410_387)"/>
<path d="M6.66903 29L0.617898 7.18182H4.08026L8.33097 24.0781H8.53338L12.9545 7.18182H16.3849L20.8061 24.0888H21.0085L25.2486 7.18182H28.7216L22.6598 29H19.3466L14.755 12.6577H14.5845L9.9929 29H6.66903ZM36.9087 29.3303C35.2965 29.3303 33.908 28.9858 32.7433 28.2969C31.5856 27.6009 30.6907 26.6243 30.0586 25.3672C29.4336 24.103 29.1211 22.6222 29.1211 20.9247C29.1211 19.2486 29.4336 17.7713 30.0586 16.4929C30.6907 15.2145 31.5714 14.2166 32.7006 13.4993C33.837 12.782 35.1651 12.4233 36.685 12.4233C37.6083 12.4233 38.5032 12.576 39.3697 12.8814C40.2362 13.1868 41.0138 13.6662 41.7028 14.3196C42.3917 14.973 42.935 15.8217 43.3327 16.8658C43.7305 17.9027 43.9293 19.1634 43.9293 20.6477V21.777H30.9215V19.3906H40.8079C40.8079 18.5526 40.6374 17.8104 40.2965 17.1641C39.9556 16.5107 39.4762 15.9957 38.8583 15.6193C38.2475 15.2429 37.5302 15.0547 36.7063 15.0547C35.8114 15.0547 35.0302 15.2749 34.3626 15.7152C33.7021 16.1484 33.1907 16.7166 32.8285 17.4197C32.4734 18.1158 32.2958 18.8722 32.2958 19.6889V21.5533C32.2958 22.647 32.4876 23.5774 32.8711 24.3445C33.2617 25.1115 33.805 25.6974 34.5011 26.1023C35.1971 26.5 36.0103 26.6989 36.9407 26.6989C37.5444 26.6989 38.0948 26.6136 38.592 26.4432C39.0891 26.2656 39.5188 26.0028 39.881 25.6548C40.2433 25.3068 40.5202 24.8771 40.712 24.3658L43.7269 24.9091C43.4854 25.7969 43.0522 26.5746 42.4272 27.2422C41.8093 27.9027 41.0316 28.4176 40.0941 28.7869C39.1637 29.1491 38.1019 29.3303 36.9087 29.3303ZM50.649 7.18182V29H47.4636V7.18182H50.649ZM61.8271 29.3303C60.2433 29.3303 58.8796 28.9716 57.7362 28.2543C56.5998 27.5298 55.7262 26.532 55.1154 25.2607C54.5046 23.9893 54.1992 22.5334 54.1992 20.8928C54.1992 19.2308 54.5117 17.7642 55.1367 16.4929C55.7617 15.2145 56.6424 14.2166 57.7788 13.4993C58.9151 12.782 60.2539 12.4233 61.7951 12.4233C63.038 12.4233 64.146 12.6541 65.119 13.1158C66.092 13.5703 66.8768 14.2095 67.4734 15.0334C68.0771 15.8572 68.4357 16.8196 68.5494 17.9205H65.4492C65.2788 17.1534 64.8881 16.4929 64.2773 15.9389C63.6737 15.3849 62.864 15.108 61.8484 15.108C60.9606 15.108 60.1829 15.3423 59.5153 15.8111C58.8548 16.2727 58.3398 16.9332 57.9705 17.7926C57.6012 18.6449 57.4165 19.6534 57.4165 20.8182C57.4165 22.0114 57.5977 23.0412 57.9599 23.9077C58.3221 24.7741 58.8335 25.4453 59.494 25.9212C60.1616 26.397 60.9464 26.6349 61.8484 26.6349C62.4521 26.6349 62.9989 26.5249 63.489 26.3047C63.9862 26.0774 64.4016 25.7543 64.7354 25.3352C65.0763 24.9162 65.3143 24.4119 65.4492 23.8224H68.5494C68.4357 24.8807 68.0913 25.8253 67.516 26.6562C66.9407 27.4872 66.1701 28.1406 65.2042 28.6165C64.2454 29.0923 63.1197 29.3303 61.8271 29.3303ZM78.8485 29.3303C77.3145 29.3303 75.9757 28.9787 74.8322 28.2756C73.6887 27.5724 72.801 26.5888 72.1689 25.3246C71.5368 24.0604 71.2207 22.5831 71.2207 20.8928C71.2207 19.1953 71.5368 17.7109 72.1689 16.4396C72.801 15.1683 73.6887 14.1811 74.8322 13.478C75.9757 12.7749 77.3145 12.4233 78.8485 12.4233C80.3826 12.4233 81.7214 12.7749 82.8649 13.478C84.0083 14.1811 84.8961 15.1683 85.5282 16.4396C86.1603 17.7109 86.4764 19.1953 86.4764 20.8928C86.4764 22.5831 86.1603 24.0604 85.5282 25.3246C84.8961 26.5888 84.0083 27.5724 82.8649 28.2756C81.7214 28.9787 80.3826 29.3303 78.8485 29.3303ZM78.8592 26.6562C79.8535 26.6562 80.6774 26.3935 81.3308 25.8679C81.9842 25.3423 82.4672 24.6428 82.7797 23.7692C83.0993 22.8956 83.2591 21.9332 83.2591 20.8821C83.2591 19.8381 83.0993 18.8793 82.7797 18.0057C82.4672 17.125 81.9842 16.4183 81.3308 15.8857C80.6774 15.353 79.8535 15.0866 78.8592 15.0866C77.8578 15.0866 77.0268 15.353 76.3663 15.8857C75.7129 16.4183 75.2264 17.125 74.9068 18.0057C74.5943 18.8793 74.438 19.8381 74.438 20.8821C74.438 21.9332 74.5943 22.8956 74.9068 23.7692C75.2264 24.6428 75.7129 25.3423 76.3663 25.8679C77.0268 26.3935 77.8578 26.6562 78.8592 26.6562ZM90.032 29V12.6364H93.0895V15.2997H93.2919C93.6328 14.3977 94.1903 13.6946 94.9645 13.1903C95.7386 12.679 96.6655 12.4233 97.745 12.4233C98.8388 12.4233 99.755 12.679 100.494 13.1903C101.239 13.7017 101.79 14.4048 102.145 15.2997H102.315C102.706 14.4261 103.327 13.7301 104.18 13.2116C105.032 12.6861 106.048 12.4233 107.227 12.4233C108.711 12.4233 109.922 12.8885 110.859 13.8189C111.804 14.7493 112.276 16.152 112.276 18.027V29H109.091V18.3253C109.091 17.2173 108.789 16.4148 108.185 15.9176C107.582 15.4205 106.861 15.1719 106.023 15.1719C104.986 15.1719 104.18 15.4915 103.604 16.1307C103.029 16.7628 102.741 17.576 102.741 18.5703V29H99.5668V18.1229C99.5668 17.2351 99.2898 16.5213 98.7358 15.9815C98.1818 15.4418 97.4609 15.1719 96.5732 15.1719C95.9695 15.1719 95.4119 15.3317 94.9006 15.6513C94.3963 15.9638 93.9879 16.4006 93.6754 16.9616C93.37 17.5227 93.2173 18.1726 93.2173 18.9112V29H90.032ZM123.598 29.3303C121.986 29.3303 120.597 28.9858 119.433 28.2969C118.275 27.6009 117.38 26.6243 116.748 25.3672C116.123 24.103 115.811 22.6222 115.811 20.9247C115.811 19.2486 116.123 17.7713 116.748 16.4929C117.38 15.2145 118.261 14.2166 119.39 13.4993C120.526 12.782 121.855 12.4233 123.374 12.4233C124.298 12.4233 125.193 12.576 126.059 12.8814C126.926 13.1868 127.703 13.6662 128.392 14.3196C129.081 14.973 129.624 15.8217 130.022 16.8658C130.42 17.9027 130.619 19.1634 130.619 20.6477V21.777H117.611V19.3906H127.497C127.497 18.5526 127.327 17.8104 126.986 17.1641C126.645 16.5107 126.166 15.9957 125.548 15.6193C124.937 15.2429 124.22 15.0547 123.396 15.0547C122.501 15.0547 121.72 15.2749 121.052 15.7152C120.392 16.1484 119.88 16.7166 119.518 17.4197C119.163 18.1158 118.985 18.8722 118.985 19.6889V21.5533C118.985 22.647 119.177 23.5774 119.561 24.3445C119.951 25.1115 120.494 25.6974 121.191 26.1023C121.887 26.5 122.7 26.6989 123.63 26.6989C124.234 26.6989 124.784 26.6136 125.281 26.4432C125.779 26.2656 126.208 26.0028 126.57 25.6548C126.933 25.3068 127.21 24.8771 127.401 24.3658L130.416 24.9091C130.175 25.7969 129.742 26.5746 129.117 27.2422C128.499 27.9027 127.721 28.4176 126.784 28.7869C125.853 29.1491 124.791 29.3303 123.598 29.3303ZM149.731 12.6364V15.1932H140.793V12.6364H149.731ZM143.19 8.71591H146.375V24.1953C146.375 24.8132 146.468 25.2784 146.652 25.5909C146.837 25.8963 147.075 26.1058 147.366 26.2195C147.664 26.326 147.987 26.3793 148.335 26.3793C148.591 26.3793 148.815 26.3615 149.007 26.326C149.198 26.2905 149.347 26.2621 149.454 26.2408L150.029 28.8722C149.845 28.9432 149.582 29.0142 149.241 29.0852C148.9 29.1634 148.474 29.206 147.963 29.2131C147.124 29.2273 146.343 29.0781 145.619 28.7656C144.894 28.4531 144.308 27.9702 143.861 27.3168C143.414 26.6634 143.19 25.843 143.19 24.8558V8.71591ZM159.972 29.3303C158.438 29.3303 157.099 28.9787 155.955 28.2756C154.812 27.5724 153.924 26.5888 153.292 25.3246C152.66 24.0604 152.344 22.5831 152.344 20.8928C152.344 19.1953 152.66 17.7109 153.292 16.4396C153.924 15.1683 154.812 14.1811 155.955 13.478C157.099 12.7749 158.438 12.4233 159.972 12.4233C161.506 12.4233 162.844 12.7749 163.988 13.478C165.131 14.1811 166.019 15.1683 166.651 16.4396C167.283 17.7109 167.599 19.1953 167.599 20.8928C167.599 22.5831 167.283 24.0604 166.651 25.3246C166.019 26.5888 165.131 27.5724 163.988 28.2756C162.844 28.9787 161.506 29.3303 159.972 29.3303ZM159.982 26.6562C160.977 26.6562 161.8 26.3935 162.454 25.8679C163.107 25.3423 163.59 24.6428 163.903 23.7692C164.222 22.8956 164.382 21.9332 164.382 20.8821C164.382 19.8381 164.222 18.8793 163.903 18.0057C163.59 17.125 163.107 16.4183 162.454 15.8857C161.8 15.353 160.977 15.0866 159.982 15.0866C158.981 15.0866 158.15 15.353 157.489 15.8857C156.836 16.4183 156.349 17.125 156.03 18.0057C155.717 18.8793 155.561 19.8381 155.561 20.8821C155.561 21.9332 155.717 22.8956 156.03 23.7692C156.349 24.6428 156.836 25.3423 157.489 25.8679C158.15 26.3935 158.981 26.6562 159.982 26.6562Z" fill="#EF2929"/>
<rect y="123" width="511" height="16" fill="#3465A4"/>
<path d="M204.881 127.727H205.932L208.403 133.764H208.489L210.96 127.727H212.011V135H211.188V129.474H211.116L208.844 135H208.048L205.776 129.474H205.705V135H204.881V127.727ZM215.269 135.128C214.923 135.128 214.609 135.063 214.328 134.933C214.046 134.8 213.822 134.609 213.656 134.361C213.491 134.11 213.408 133.807 213.408 133.452C213.408 133.139 213.469 132.886 213.593 132.692C213.716 132.495 213.88 132.341 214.086 132.23C214.292 132.119 214.519 132.036 214.768 131.982C215.019 131.925 215.271 131.88 215.524 131.847C215.856 131.804 216.124 131.772 216.33 131.751C216.539 131.727 216.69 131.688 216.785 131.634C216.882 131.579 216.931 131.484 216.931 131.349V131.321C216.931 130.971 216.835 130.698 216.643 130.504C216.454 130.31 216.166 130.213 215.78 130.213C215.38 130.213 215.066 130.301 214.839 130.476C214.612 130.651 214.452 130.838 214.36 131.037L213.564 130.753C213.706 130.421 213.896 130.163 214.132 129.979C214.371 129.792 214.632 129.661 214.914 129.588C215.198 129.512 215.477 129.474 215.752 129.474C215.927 129.474 216.128 129.496 216.355 129.538C216.585 129.579 216.806 129.663 217.019 129.79C217.235 129.918 217.414 130.111 217.556 130.369C217.698 130.627 217.769 130.973 217.769 131.406V135H216.931V134.261H216.888C216.831 134.38 216.736 134.506 216.604 134.641C216.471 134.776 216.295 134.891 216.075 134.986C215.855 135.08 215.586 135.128 215.269 135.128ZM215.396 134.375C215.728 134.375 216.007 134.31 216.235 134.18C216.464 134.049 216.637 133.881 216.753 133.675C216.871 133.469 216.931 133.253 216.931 133.026V132.259C216.895 132.301 216.817 132.34 216.696 132.376C216.578 132.409 216.441 132.438 216.284 132.464C216.13 132.488 215.98 132.509 215.833 132.528C215.689 132.545 215.572 132.559 215.482 132.571C215.264 132.599 215.06 132.646 214.871 132.71C214.684 132.771 214.532 132.865 214.416 132.99C214.303 133.113 214.246 133.281 214.246 133.494C214.246 133.786 214.354 134.006 214.569 134.155C214.787 134.302 215.063 134.375 215.396 134.375ZM221.358 135.114C220.903 135.114 220.502 134.999 220.154 134.769C219.806 134.537 219.534 134.21 219.337 133.789C219.141 133.365 219.043 132.865 219.043 132.287C219.043 131.714 219.141 131.217 219.337 130.795C219.534 130.374 219.807 130.049 220.158 129.819C220.508 129.589 220.913 129.474 221.372 129.474C221.727 129.474 222.008 129.534 222.214 129.652C222.422 129.768 222.581 129.901 222.69 130.05C222.801 130.196 222.887 130.317 222.949 130.412H223.02V127.727H223.858V135H223.048V134.162H222.949C222.887 134.261 222.8 134.387 222.686 134.538C222.572 134.687 222.41 134.821 222.2 134.94C221.989 135.056 221.708 135.114 221.358 135.114ZM221.472 134.361C221.808 134.361 222.092 134.273 222.324 134.098C222.556 133.92 222.732 133.675 222.853 133.363C222.974 133.048 223.034 132.685 223.034 132.273C223.034 131.866 222.975 131.509 222.857 131.204C222.738 130.896 222.563 130.657 222.331 130.487C222.099 130.314 221.813 130.227 221.472 130.227C221.116 130.227 220.821 130.318 220.584 130.501C220.349 130.681 220.173 130.926 220.055 131.236C219.939 131.544 219.881 131.889 219.881 132.273C219.881 132.661 219.94 133.014 220.058 133.331C220.179 133.646 220.357 133.897 220.591 134.084C220.828 134.268 221.121 134.361 221.472 134.361ZM227.796 135.114C227.271 135.114 226.817 134.998 226.436 134.766C226.057 134.531 225.765 134.205 225.559 133.786C225.355 133.364 225.254 132.874 225.254 132.315C225.254 131.757 225.355 131.264 225.559 130.838C225.765 130.41 226.051 130.076 226.418 129.837C226.788 129.595 227.219 129.474 227.711 129.474C227.995 129.474 228.276 129.522 228.553 129.616C228.83 129.711 229.082 129.865 229.309 130.078C229.536 130.289 229.717 130.568 229.852 130.916C229.987 131.264 230.055 131.693 230.055 132.202V132.557H225.85V131.832H229.202C229.202 131.525 229.141 131.25 229.018 131.009C228.897 130.767 228.724 130.576 228.499 130.437C228.277 130.297 228.014 130.227 227.711 130.227C227.377 130.227 227.088 130.31 226.844 130.476C226.603 130.639 226.417 130.852 226.287 131.115C226.157 131.378 226.092 131.66 226.092 131.96V132.443C226.092 132.855 226.163 133.204 226.305 133.491C226.449 133.775 226.649 133.991 226.905 134.141C227.161 134.287 227.458 134.361 227.796 134.361C228.016 134.361 228.215 134.33 228.393 134.268C228.573 134.205 228.728 134.11 228.858 133.984C228.988 133.857 229.089 133.698 229.16 133.509L229.969 133.736C229.884 134.01 229.741 134.252 229.54 134.46C229.339 134.666 229.09 134.827 228.794 134.943C228.498 135.057 228.165 135.114 227.796 135.114ZM234.256 135V127.727H235.094V130.412H235.165C235.226 130.317 235.312 130.196 235.42 130.05C235.532 129.901 235.69 129.768 235.896 129.652C236.105 129.534 236.386 129.474 236.741 129.474C237.201 129.474 237.606 129.589 237.956 129.819C238.306 130.049 238.58 130.374 238.776 130.795C238.973 131.217 239.071 131.714 239.071 132.287C239.071 132.865 238.973 133.365 238.776 133.789C238.58 134.21 238.308 134.537 237.96 134.769C237.612 134.999 237.21 135.114 236.756 135.114C236.405 135.114 236.125 135.056 235.914 134.94C235.703 134.821 235.541 134.687 235.428 134.538C235.314 134.387 235.226 134.261 235.165 134.162H235.065V135H234.256ZM235.08 132.273C235.08 132.685 235.14 133.048 235.261 133.363C235.381 133.675 235.558 133.92 235.79 134.098C236.022 134.273 236.306 134.361 236.642 134.361C236.992 134.361 237.285 134.268 237.519 134.084C237.756 133.897 237.933 133.646 238.052 133.331C238.173 133.014 238.233 132.661 238.233 132.273C238.233 131.889 238.174 131.544 238.055 131.236C237.939 130.926 237.763 130.681 237.526 130.501C237.292 130.318 236.997 130.227 236.642 130.227C236.301 130.227 236.015 130.314 235.783 130.487C235.551 130.657 235.375 130.896 235.257 131.204C235.139 131.509 235.08 131.866 235.08 132.273ZM240.697 137.045C240.555 137.045 240.429 137.034 240.317 137.01C240.206 136.989 240.129 136.967 240.087 136.946L240.3 136.207C240.503 136.259 240.683 136.278 240.839 136.264C240.996 136.25 241.134 136.18 241.255 136.055C241.378 135.932 241.491 135.732 241.592 135.455L241.749 135.028L239.732 129.545H240.641L242.146 133.892H242.203L243.709 129.545H244.618L242.303 135.795C242.198 136.077 242.069 136.31 241.915 136.495C241.762 136.682 241.583 136.821 241.379 136.911C241.178 137 240.951 137.045 240.697 137.045ZM248.949 135H248.025L250.696 127.727H251.605L254.275 135H253.352L251.179 128.878H251.122L248.949 135ZM249.289 132.159H253.011V132.94H249.289V132.159ZM256.132 131.719V135H255.294V129.545H256.104V130.398H256.175C256.303 130.121 256.497 129.898 256.757 129.73C257.018 129.56 257.354 129.474 257.766 129.474C258.135 129.474 258.458 129.55 258.735 129.702C259.012 129.851 259.228 130.078 259.382 130.384C259.536 130.687 259.613 131.07 259.613 131.534V135H258.775V131.591C258.775 131.162 258.663 130.829 258.441 130.589C258.218 130.348 257.913 130.227 257.525 130.227C257.257 130.227 257.018 130.285 256.807 130.401C256.599 130.517 256.434 130.687 256.314 130.909C256.193 131.132 256.132 131.402 256.132 131.719ZM264.581 132.77V129.545H265.42V135H264.581V134.077H264.525C264.397 134.354 264.198 134.589 263.928 134.783C263.658 134.975 263.317 135.071 262.905 135.071C262.564 135.071 262.261 134.996 261.996 134.847C261.731 134.696 261.523 134.469 261.371 134.165C261.22 133.86 261.144 133.475 261.144 133.011V129.545H261.982V132.955C261.982 133.352 262.093 133.67 262.316 133.906C262.541 134.143 262.827 134.261 263.175 134.261C263.384 134.261 263.595 134.208 263.811 134.102C264.029 133.995 264.211 133.832 264.358 133.612C264.507 133.391 264.581 133.111 264.581 132.77ZM266.955 129.545H267.793V135.398C267.793 135.734 267.735 136.025 267.619 136.271C267.505 136.518 267.332 136.708 267.1 136.843C266.871 136.978 266.58 137.045 266.23 137.045C266.202 137.045 266.173 137.045 266.145 137.045C266.116 137.045 266.088 137.045 266.06 137.045V136.264C266.088 136.264 266.114 136.264 266.138 136.264C266.161 136.264 266.188 136.264 266.216 136.264C266.472 136.264 266.659 136.188 266.777 136.037C266.895 135.888 266.955 135.675 266.955 135.398V129.545ZM267.366 128.636C267.203 128.636 267.062 128.581 266.944 128.469C266.828 128.358 266.77 128.224 266.77 128.068C266.77 127.912 266.828 127.778 266.944 127.667C267.062 127.556 267.203 127.5 267.366 127.5C267.53 127.5 267.67 127.556 267.786 127.667C267.904 127.778 267.963 127.912 267.963 128.068C267.963 128.224 267.904 128.358 267.786 128.469C267.67 128.581 267.53 128.636 267.366 128.636ZM272.254 135V127.727H273.134V131.335H273.22L276.487 127.727H277.637L274.583 131.009L277.637 135H276.572L274.044 131.619L273.134 132.642V135H272.254ZM279.502 131.719V135H278.664V127.727H279.502V130.398H279.573C279.7 130.116 279.892 129.892 280.148 129.727C280.406 129.558 280.749 129.474 281.178 129.474C281.549 129.474 281.875 129.549 282.154 129.698C282.434 129.845 282.65 130.071 282.804 130.376C282.96 130.679 283.039 131.065 283.039 131.534V135H282.2V131.591C282.2 131.158 282.088 130.823 281.863 130.586C281.641 130.347 281.332 130.227 280.936 130.227C280.662 130.227 280.415 130.285 280.198 130.401C279.982 130.517 279.812 130.687 279.686 130.909C279.563 131.132 279.502 131.402 279.502 131.719ZM286.177 135.128C285.831 135.128 285.518 135.063 285.236 134.933C284.954 134.8 284.73 134.609 284.565 134.361C284.399 134.11 284.316 133.807 284.316 133.452C284.316 133.139 284.378 132.886 284.501 132.692C284.624 132.495 284.788 132.341 284.994 132.23C285.2 132.119 285.428 132.036 285.676 131.982C285.927 131.925 286.179 131.88 286.433 131.847C286.764 131.804 287.033 131.772 287.239 131.751C287.447 131.727 287.598 131.688 287.693 131.634C287.79 131.579 287.839 131.484 287.839 131.349V131.321C287.839 130.971 287.743 130.698 287.551 130.504C287.362 130.31 287.074 130.213 286.688 130.213C286.288 130.213 285.974 130.301 285.747 130.476C285.52 130.651 285.36 130.838 285.268 131.037L284.472 130.753C284.614 130.421 284.804 130.163 285.04 129.979C285.28 129.792 285.54 129.661 285.822 129.588C286.106 129.512 286.385 129.474 286.66 129.474C286.835 129.474 287.036 129.496 287.263 129.538C287.493 129.579 287.714 129.663 287.928 129.79C288.143 129.918 288.322 130.111 288.464 130.369C288.606 130.627 288.677 130.973 288.677 131.406V135H287.839V134.261H287.796C287.739 134.38 287.645 134.506 287.512 134.641C287.379 134.776 287.203 134.891 286.983 134.986C286.763 135.08 286.494 135.128 286.177 135.128ZM286.305 134.375C286.636 134.375 286.915 134.31 287.143 134.18C287.372 134.049 287.545 133.881 287.661 133.675C287.78 133.469 287.839 133.253 287.839 133.026V132.259C287.803 132.301 287.725 132.34 287.604 132.376C287.486 132.409 287.349 132.438 287.192 132.464C287.039 132.488 286.888 132.509 286.741 132.528C286.597 132.545 286.48 132.559 286.39 132.571C286.172 132.599 285.969 132.646 285.779 132.71C285.592 132.771 285.441 132.865 285.325 132.99C285.211 133.113 285.154 133.281 285.154 133.494C285.154 133.786 285.262 134.006 285.477 134.155C285.695 134.302 285.971 134.375 286.305 134.375ZM292.266 135.114C291.812 135.114 291.41 134.999 291.062 134.769C290.714 134.537 290.442 134.21 290.246 133.789C290.049 133.365 289.951 132.865 289.951 132.287C289.951 131.714 290.049 131.217 290.246 130.795C290.442 130.374 290.715 130.049 291.066 129.819C291.416 129.589 291.821 129.474 292.28 129.474C292.635 129.474 292.916 129.534 293.122 129.652C293.33 129.768 293.489 129.901 293.598 130.05C293.709 130.196 293.796 130.317 293.857 130.412H293.928V127.727H294.766V135H293.956V134.162H293.857C293.796 134.261 293.708 134.387 293.594 134.538C293.481 134.687 293.318 134.821 293.108 134.94C292.897 135.056 292.617 135.114 292.266 135.114ZM292.38 134.361C292.716 134.361 293 134.273 293.232 134.098C293.464 133.92 293.64 133.675 293.761 133.363C293.882 133.048 293.942 132.685 293.942 132.273C293.942 131.866 293.883 131.509 293.765 131.204C293.646 130.896 293.471 130.657 293.239 130.487C293.007 130.314 292.721 130.227 292.38 130.227C292.025 130.227 291.729 130.318 291.492 130.501C291.258 130.681 291.081 130.926 290.963 131.236C290.847 131.544 290.789 131.889 290.789 132.273C290.789 132.661 290.848 133.014 290.966 133.331C291.087 133.646 291.265 133.897 291.499 134.084C291.736 134.268 292.029 134.361 292.38 134.361ZM297.199 133.011L297.184 131.974H297.355L299.741 129.545H300.778L298.236 132.116H298.165L297.199 133.011ZM296.417 135V127.727H297.256V135H296.417ZM299.883 135L297.753 132.301L298.349 131.719L300.949 135H299.883ZM303.462 135.128C303.116 135.128 302.803 135.063 302.521 134.933C302.239 134.8 302.016 134.609 301.85 134.361C301.684 134.11 301.601 133.807 301.601 133.452C301.601 133.139 301.663 132.886 301.786 132.692C301.909 132.495 302.074 132.341 302.279 132.23C302.485 132.119 302.713 132.036 302.961 131.982C303.212 131.925 303.464 131.88 303.718 131.847C304.049 131.804 304.318 131.772 304.524 131.751C304.732 131.727 304.884 131.688 304.978 131.634C305.075 131.579 305.124 131.484 305.124 131.349V131.321C305.124 130.971 305.028 130.698 304.836 130.504C304.647 130.31 304.359 130.213 303.973 130.213C303.573 130.213 303.26 130.301 303.032 130.476C302.805 130.651 302.645 130.838 302.553 131.037L301.757 130.753C301.9 130.421 302.089 130.163 302.326 129.979C302.565 129.792 302.825 129.661 303.107 129.588C303.391 129.512 303.67 129.474 303.945 129.474C304.12 129.474 304.321 129.496 304.549 129.538C304.778 129.579 305 129.663 305.213 129.79C305.428 129.918 305.607 130.111 305.749 130.369C305.891 130.627 305.962 130.973 305.962 131.406V135H305.124V134.261H305.081C305.025 134.38 304.93 134.506 304.797 134.641C304.665 134.776 304.488 134.891 304.268 134.986C304.048 135.08 303.779 135.128 303.462 135.128ZM303.59 134.375C303.921 134.375 304.201 134.31 304.428 134.18C304.658 134.049 304.83 133.881 304.946 133.675C305.065 133.469 305.124 133.253 305.124 133.026V132.259C305.088 132.301 305.01 132.34 304.89 132.376C304.771 132.409 304.634 132.438 304.478 132.464C304.324 132.488 304.173 132.509 304.027 132.528C303.882 132.545 303.765 132.559 303.675 132.571C303.457 132.599 303.254 132.646 303.064 132.71C302.877 132.771 302.726 132.865 302.61 132.99C302.496 133.113 302.439 133.281 302.439 133.494C302.439 133.786 302.547 134.006 302.762 134.155C302.98 134.302 303.256 134.375 303.59 134.375Z" fill="#F7FC07"/>
</svg>
